<?xml version="1.0" encoding="utf-8"?>
<!-- Generator: Adobe Illustrator 26.0.1, SVG Export Plug-In . SVG Version: 6.00 Build 0)  -->
<svg version="1.1" id="Ebene_1" xmlns="http://www.w3.org/2000/svg" xmlns:xlink="http://www.w3.org/1999/xlink" x="0px" y="0px"
	 viewBox="0 0 1920 1080" style="enable-background:new 0 0 1920 1080;" xml:space="preserve">
<style type="text/css">
	.st0{fill:#FFFFFF;}
</style>
<g>
	<path class="st0" d="M600,900c0-240,0-480,0-720c240,0,480,0,720,0c0,240,0,480,0,720C1080,900,840,900,600,900z M795.2,442.7
		c-42.3,73.6-84.4,146.7-126.6,220.1c20.4,0,40.3,0,60.3,0c22.1-38.2,44.1-76.4,66.2-114.8c0.5,0.7,0.9,1.2,1.2,1.8
		c8.3,14.3,16.5,28.7,24.7,43c13,22.6,26,45.2,38.9,67.8c0.8,1.4,1.7,1.8,3.2,1.8c18.6-0.1,37.3,0,55.9,0c0.6,0,1.2-0.1,2-0.1
		c-0.4-0.8-0.6-1.3-0.9-1.7c-4.3-7.2-8.6-14.4-12.9-21.6c-7.1-12-14.2-23.9-21.4-35.8c-1-1.6-0.9-2.7,0-4.3
		c7.4-13.1,14.8-26.2,22.1-39.3c2.1-3.8,4.2-7.5,6.5-11.4c0.5,0.7,0.9,1.2,1.2,1.7c11.2,19.5,22.4,38.9,33.6,58.4
		c9.8,17.1,19.7,34.2,29.5,51.3c0.7,1.2,1.4,1.9,2.9,1.9c19-0.1,38.1,0,57.1,0c0.5,0,1-0.1,1.8-0.3c-41.6-72.4-83.1-144.5-124.8-217
		c-20.4,35.3-40.6,70.2-61,105.4C834.9,513.7,815.1,478.4,795.2,442.7z M946.2,391.2c0.4,0.8,0.7,1.3,1,1.8
		c10.1,17.6,20.3,35.2,30.4,52.8c19.9,34.7,39.9,69.4,59.8,104.1c11,19.2,22.1,38.4,33.1,57.6c0.8,1.5,1.6,2.4,3.6,2.4
		c58.6-0.1,117.2-0.1,175.9-0.1c0.8,0,1.5-0.1,2.7-0.2c-10.4-17.8-20.6-35.3-30.9-52.9c-1.1,0-2,0-3,0c-38.4,0-76.8,0-115.2,0
		c-1.8,0-2.8-0.5-3.8-2.2c-13.3-23.2-26.6-46.3-39.9-69.4c-16-27.8-32-55.7-48-83.5c-12.2-21.2-24.3-42.3-36.7-63.7
		C965.6,355.8,955.9,373.5,946.2,391.2z"/>
	<path d="M795.2,442.7c20,35.7,39.7,71,59.8,106.8c20.4-35.2,40.5-70.1,61-105.4c41.7,72.5,83.2,144.7,124.8,217
		c-0.8,0.1-1.3,0.3-1.8,0.3c-19,0-38.1,0-57.1,0c-1.6,0-2.2-0.7-2.9-1.9c-9.8-17.1-19.7-34.2-29.5-51.3
		c-11.2-19.5-22.4-38.9-33.6-58.4c-0.3-0.5-0.7-1-1.2-1.7c-2.2,3.9-4.4,7.7-6.5,11.4c-7.4,13.1-14.7,26.2-22.1,39.3
		c-0.9,1.6-1,2.7,0,4.3c7.2,11.9,14.3,23.9,21.4,35.8c4.3,7.2,8.6,14.4,12.9,21.6c0.3,0.5,0.5,1,0.9,1.7c-0.8,0-1.4,0.1-2,0.1
		c-18.6,0-37.3,0-55.9,0c-1.6,0-2.4-0.4-3.2-1.8C847,637.9,834,615.3,821,592.8c-8.2-14.3-16.5-28.7-24.7-43c-0.3-0.5-0.7-1-1.2-1.8
		c-22.1,38.4-44.2,76.6-66.2,114.8c-20,0-39.9,0-60.3,0C710.8,589.4,752.8,516.3,795.2,442.7z"/>
	<path d="M946.2,391.2c9.7-17.7,19.4-35.5,29.1-53.3c12.3,21.4,24.5,42.6,36.7,63.7c16,27.8,32,55.7,48,83.5
		c13.3,23.1,26.6,46.3,39.9,69.4c0.9,1.6,1.9,2.2,3.8,2.2c38.4-0.1,76.8,0,115.2,0c1,0,1.9,0,3,0c10.2,17.6,20.5,35,30.9,52.9
		c-1.2,0.1-2,0.2-2.7,0.2c-58.6,0-117.2,0-175.9,0.1c-2,0-2.8-1-3.6-2.4c-11-19.2-22-38.4-33.1-57.6
		c-19.9-34.7-39.9-69.4-59.8-104.1c-10.1-17.6-20.3-35.2-30.4-52.8C946.9,392.5,946.6,392,946.2,391.2z"/>
</g>
</svg>
